<svg>
  <symbol id="logo-icon" viewBox="0 0 40 24" xmlns="http://www.w3.org/2000/svg">
    <path d="M2.93333 15.0966V7.25442H0V17.7306H6.65986V15.0966H2.93333Z" />
    <path d="M11.6842 18C15.0516 18 17.4461 15.7102 17.4461 12.5075C17.4461 9.2898 15.0516 7 11.6842 7C8.31688 7 5.92232 9.30476 5.92232 12.5075C5.92232 15.6952 8.31688 18 11.6842 18ZM11.6842 15.3211C10.0978 15.3211 8.91552 14.1238 8.91552 12.5075C8.91552 10.8762 10.0978 9.67891 11.6842 9.67891C13.2856 9.67891 14.438 10.8612 14.438 12.5075C14.438 14.1388 13.2856 15.3211 11.6842 15.3211Z" />
    <path d="M22.535 12.1333V13.9592H25.1391C24.8099 14.7673 23.867 15.3061 22.7595 15.3061C21.1731 15.3061 20.1405 14.1687 20.1405 12.5075C20.1405 10.8313 21.1881 9.69388 22.7595 9.69388C23.8221 9.69388 24.765 10.2626 25.1391 11.1456H28.1772C27.7282 8.72109 25.4833 7 22.7296 7C19.5119 7 17.1772 9.31973 17.1772 12.5075C17.1772 15.6952 19.5568 18 22.7595 18C26.0371 18 28.282 15.5605 28.282 12.1333H22.535Z"/>
    <path d="M33.7555 18C37.1229 18 39.5175 15.7102 39.5175 12.5075C39.5175 9.2898 37.1229 7 33.7555 7C30.3882 7 27.9936 9.30476 27.9936 12.5075C27.9936 15.6952 30.3882 18 33.7555 18ZM33.7555 15.3211C32.1692 15.3211 30.9868 14.1238 30.9868 12.5075C30.9868 10.8762 32.1692 9.67891 33.7555 9.67891C35.3569 9.67891 36.5093 10.8612 36.5093 12.5075C36.5093 14.1388 35.3569 15.3211 33.7555 15.3211Z" />
  </symbol>
  <symbol id="heart-icon" viewBox="0 0 16 16" xmlns="http://www.w3.org/2000/svg">
    <path fill-rule="evenodd" clip-rule="evenodd" d="M9.62846 1.63136C10.1584 1.41178 10.7264 1.29877 11.3 1.29877C11.8736 1.29877 12.4416 1.41178 12.9715 1.63136C13.5014 1.85093 13.9829 2.17276 14.3884 2.57846C14.794 2.98392 15.1157 3.46531 15.3353 3.99513C15.5549 4.52505 15.6679 5.09304 15.6679 5.66665C15.6679 6.24026 15.5549 6.80825 15.3353 7.33817C15.1157 7.86805 14.7939 8.34947 14.3883 8.75496C14.3883 8.755 14.3883 8.75492 14.3883 8.75496L8.49496 14.6483C8.22159 14.9217 7.77838 14.9217 7.50501 14.6483L1.61168 8.75496C0.792607 7.93589 0.332458 6.82499 0.332458 5.66665C0.332458 4.50831 0.792607 3.39741 1.61168 2.57834C2.43075 1.75927 3.54165 1.29912 4.69999 1.29912C5.85833 1.29912 6.96922 1.75927 7.78829 2.57834L7.99999 2.79003L8.21156 2.57846C8.21152 2.5785 8.2116 2.57842 8.21156 2.57846C8.61705 2.17281 9.09859 1.85091 9.62846 1.63136ZM13.3982 3.56818C13.1227 3.29255 12.7956 3.0739 12.4356 2.92472C12.0756 2.77555 11.6897 2.69877 11.3 2.69877C10.9103 2.69877 10.5244 2.77555 10.1644 2.92472C9.80435 3.0739 9.47724 3.29255 9.20174 3.56818L8.49496 4.27496C8.22159 4.54833 7.77838 4.54833 7.50501 4.27496L6.79834 3.56829C6.24182 3.01177 5.48702 2.69912 4.69999 2.69912C3.91295 2.69912 3.15815 3.01177 2.60163 3.56829C2.04511 4.12481 1.73246 4.87961 1.73246 5.66665C1.73246 6.45369 2.04511 7.20849 2.60163 7.76501L7.99999 13.1634L13.3983 7.76501C13.674 7.48951 13.8927 7.16229 14.0419 6.80227C14.1911 6.44224 14.2679 6.05635 14.2679 5.66665C14.2679 5.27695 14.1911 4.89106 14.0419 4.53103C13.8927 4.17101 13.6739 3.84367 13.3982 3.56818Z" />
  </symbol>
  <symbol id="cart-icon" viewBox="0 0 16 16" xmlns="http://www.w3.org/2000/svg">
    <path fill-rule="evenodd" clip-rule="evenodd" d="M3.46671 0.933323C3.59261 0.765453 3.7902 0.666656 4.00004 0.666656H12C12.2099 0.666656 12.4075 0.765453 12.5334 0.933323L14.5334 3.59999C14.6199 3.71539 14.6667 3.85574 14.6667 3.99999V13.3333C14.6667 13.8638 14.456 14.3725 14.0809 14.7475C13.7058 15.1226 13.1971 15.3333 12.6667 15.3333H3.33337C2.80294 15.3333 2.29423 15.1226 1.91916 14.7475C1.54409 14.3725 1.33337 13.8638 1.33337 13.3333V3.99999C1.33337 3.85574 1.38016 3.71539 1.46671 3.59999L3.46671 0.933323ZM4.33337 1.99999L2.66671 4.22221V13.3333C2.66671 13.5101 2.73695 13.6797 2.86197 13.8047C2.98699 13.9298 3.15656 14 3.33337 14H12.6667C12.8435 14 13.0131 13.9298 13.1381 13.8047C13.2631 13.6797 13.3334 13.5101 13.3334 13.3333V4.22221L11.6667 1.99999H4.33337Z" />
    <path fill-rule="evenodd" clip-rule="evenodd" d="M1.33337 4.00001C1.33337 3.63182 1.63185 3.33334 2.00004 3.33334H14C14.3682 3.33334 14.6667 3.63182 14.6667 4.00001C14.6667 4.3682 14.3682 4.66668 14 4.66668H2.00004C1.63185 4.66668 1.33337 4.3682 1.33337 4.00001Z" />
    <path fill-rule="evenodd" clip-rule="evenodd" d="M5.33329 6C5.70148 6 5.99996 6.29848 5.99996 6.66667C5.99996 7.1971 6.21067 7.70581 6.58575 8.08088C6.96082 8.45595 7.46953 8.66667 7.99996 8.66667C8.53039 8.66667 9.0391 8.45595 9.41417 8.08088C9.78925 7.70581 9.99996 7.1971 9.99996 6.66667C9.99996 6.29848 10.2984 6 10.6666 6C11.0348 6 11.3333 6.29848 11.3333 6.66667C11.3333 7.55072 10.9821 8.39857 10.357 9.02369C9.73186 9.64881 8.88401 10 7.99996 10C7.1159 10 6.26806 9.64881 5.64294 9.02369C5.01782 8.39857 4.66663 7.55072 4.66663 6.66667C4.66663 6.29848 4.9651 6 5.33329 6Z" />
  </symbol>
</svg>
