<svg>
  <symbol id="logo-icon" viewBox="0 0 40 24" xmlns="http://www.w3.org/2000/svg">
    <path d="M2.93333 15.0966V7.25442H0V17.7306H6.65986V15.0966H2.93333Z" />
    <path d="M11.6842 18C15.0516 18 17.4461 15.7102 17.4461 12.5075C17.4461 9.2898 15.0516 7 11.6842 7C8.31688 7 5.92232 9.30476 5.92232 12.5075C5.92232 15.6952 8.31688 18 11.6842 18ZM11.6842 15.3211C10.0978 15.3211 8.91552 14.1238 8.91552 12.5075C8.91552 10.8762 10.0978 9.67891 11.6842 9.67891C13.2856 9.67891 14.438 10.8612 14.438 12.5075C14.438 14.1388 13.2856 15.3211 11.6842 15.3211Z" />
    <path d="M22.535 12.1333V13.9592H25.1391C24.8099 14.7673 23.867 15.3061 22.7595 15.3061C21.1731 15.3061 20.1405 14.1687 20.1405 12.5075C20.1405 10.8313 21.1881 9.69388 22.7595 9.69388C23.8221 9.69388 24.765 10.2626 25.1391 11.1456H28.1772C27.7282 8.72109 25.4833 7 22.7296 7C19.5119 7 17.1772 9.31973 17.1772 12.5075C17.1772 15.6952 19.5568 18 22.7595 18C26.0371 18 28.282 15.5605 28.282 12.1333H22.535Z"/>
    <path d="M33.7555 18C37.1229 18 39.5175 15.7102 39.5175 12.5075C39.5175 9.2898 37.1229 7 33.7555 7C30.3882 7 27.9936 9.30476 27.9936 12.5075C27.9936 15.6952 30.3882 18 33.7555 18ZM33.7555 15.3211C32.1692 15.3211 30.9868 14.1238 30.9868 12.5075C30.9868 10.8762 32.1692 9.67891 33.7555 9.67891C35.3569 9.67891 36.5093 10.8612 36.5093 12.5075C36.5093 14.1388 35.3569 15.3211 33.7555 15.3211Z" />
  </symbol>
  <symbol id="heart-icon" viewBox="0 0 16 16" xmlns="http://www.w3.org/2000/svg">
    <path fill-rule="evenodd" clip-rule="evenodd" d="M9.62846 1.63136C10.1584 1.41178 10.7264 1.29877 11.3 1.29877C11.8736 1.29877 12.4416 1.41178 12.9715 1.63136C13.5014 1.85093 13.9829 2.17276 14.3884 2.57846C14.794 2.98392 15.1157 3.46531 15.3353 3.99513C15.5549 4.52505 15.6679 5.09304 15.6679 5.66665C15.6679 6.24026 15.5549 6.80825 15.3353 7.33817C15.1157 7.86805 14.7939 8.34947 14.3883 8.75496C14.3883 8.755 14.3883 8.75492 14.3883 8.75496L8.49496 14.6483C8.22159 14.9217 7.77838 14.9217 7.50501 14.6483L1.61168 8.75496C0.792607 7.93589 0.332458 6.82499 0.332458 5.66665C0.332458 4.50831 0.792607 3.39741 1.61168 2.57834C2.43075 1.75927 3.54165 1.29912 4.69999 1.29912C5.85833 1.29912 6.96922 1.75927 7.78829 2.57834L7.99999 2.79003L8.21156 2.57846C8.21152 2.5785 8.2116 2.57842 8.21156 2.57846C8.61705 2.17281 9.09859 1.85091 9.62846 1.63136ZM13.3982 3.56818C13.1227 3.29255 12.7956 3.0739 12.4356 2.92472C12.0756 2.77555 11.6897 2.69877 11.3 2.69877C10.9103 2.69877 10.5244 2.77555 10.1644 2.92472C9.80435 3.0739 9.47724 3.29255 9.20174 3.56818L8.49496 4.27496C8.22159 4.54833 7.77838 4.54833 7.50501 4.27496L6.79834 3.56829C6.24182 3.01177 5.48702 2.69912 4.69999 2.69912C3.91295 2.69912 3.15815 3.01177 2.60163 3.56829C2.04511 4.12481 1.73246 4.87961 1.73246 5.66665C1.73246 6.45369 2.04511 7.20849 2.60163 7.76501L7.99999 13.1634L13.3983 7.76501C13.674 7.48951 13.8927 7.16229 14.0419 6.80227C14.1911 6.44224 14.2679 6.05635 14.2679 5.66665C14.2679 5.27695 14.1911 4.89106 14.0419 4.53103C13.8927 4.17101 13.6739 3.84367 13.3982 3.56818Z" />
  </symbol>
  <symbol id="cart-icon" viewBox="0 0 16 16" xmlns="http://www.w3.org/2000/svg">
    <path fill-rule="evenodd" clip-rule="evenodd" d="M3.46671 0.933323C3.59261 0.765453 3.7902 0.666656 4.00004 0.666656H12C12.2099 0.666656 12.4075 0.765453 12.5334 0.933323L14.5334 3.59999C14.6199 3.71539 14.6667 3.85574 14.6667 3.99999V13.3333C14.6667 13.8638 14.456 14.3725 14.0809 14.7475C13.7058 15.1226 13.1971 15.3333 12.6667 15.3333H3.33337C2.80294 15.3333 2.29423 15.1226 1.91916 14.7475C1.54409 14.3725 1.33337 13.8638 1.33337 13.3333V3.99999C1.33337 3.85574 1.38016 3.71539 1.46671 3.59999L3.46671 0.933323ZM4.33337 1.99999L2.66671 4.22221V13.3333C2.66671 13.5101 2.73695 13.6797 2.86197 13.8047C2.98699 13.9298 3.15656 14 3.33337 14H12.6667C12.8435 14 13.0131 13.9298 13.1381 13.8047C13.2631 13.6797 13.3334 13.5101 13.3334 13.3333V4.22221L11.6667 1.99999H4.33337Z" />
    <path fill-rule="evenodd" clip-rule="evenodd" d="M1.33337 4.00001C1.33337 3.63182 1.63185 3.33334 2.00004 3.33334H14C14.3682 3.33334 14.6667 3.63182 14.6667 4.00001C14.6667 4.3682 14.3682 4.66668 14 4.66668H2.00004C1.63185 4.66668 1.33337 4.3682 1.33337 4.00001Z" />
    <path fill-rule="evenodd" clip-rule="evenodd" d="M5.33329 6C5.70148 6 5.99996 6.29848 5.99996 6.66667C5.99996 7.1971 6.21067 7.70581 6.58575 8.08088C6.96082 8.45595 7.46953 8.66667 7.99996 8.66667C8.53039 8.66667 9.0391 8.45595 9.41417 8.08088C9.78925 7.70581 9.99996 7.1971 9.99996 6.66667C9.99996 6.29848 10.2984 6 10.6666 6C11.0348 6 11.3333 6.29848 11.3333 6.66667C11.3333 7.55072 10.9821 8.39857 10.357 9.02369C9.73186 9.64881 8.88401 10 7.99996 10C7.1159 10 6.26806 9.64881 5.64294 9.02369C5.01782 8.39857 4.66663 7.55072 4.66663 6.66667C4.66663 6.29848 4.9651 6 5.33329 6Z" />
  </symbol>
  <symbol id="home-icon" viewBox="0 0 16 16" xmlns="http://www.w3.org/2000/svg">
    <path fill-rule="evenodd" clip-rule="evenodd" d="M7.59087 0.807088C7.83161 0.619846 8.16872 0.619846 8.40946 0.807088L14.4095 5.47375C14.5718 5.60006 14.6668 5.79426 14.6668 5.99999V13.3333C14.6668 13.8638 14.4561 14.3725 14.081 14.7475C13.706 15.1226 13.1973 15.3333 12.6668 15.3333H3.3335C2.80306 15.3333 2.29436 15.1226 1.91928 14.7475C1.54421 14.3725 1.3335 13.8638 1.3335 13.3333V5.99999C1.3335 5.79426 1.42848 5.60006 1.59087 5.47375L7.59087 0.807088ZM2.66683 6.32605V13.3333C2.66683 13.5101 2.73707 13.6797 2.86209 13.8047C2.98712 13.9298 3.15669 14 3.3335 14H12.6668C12.8436 14 13.0132 13.9298 13.1382 13.8047C13.2633 13.6797 13.3335 13.5101 13.3335 13.3333V6.32605L8.00016 2.1779L2.66683 6.32605Z" />
    <path fill-rule="evenodd" clip-rule="evenodd" d="M5.3335 8.00001C5.3335 7.63182 5.63197 7.33334 6.00016 7.33334H10.0002C10.3684 7.33334 10.6668 7.63182 10.6668 8.00001V14.6667C10.6668 15.0349 10.3684 15.3333 10.0002 15.3333C9.63197 15.3333 9.3335 15.0349 9.3335 14.6667V8.66668H6.66683V14.6667C6.66683 15.0349 6.36835 15.3333 6.00016 15.3333C5.63197 15.3333 5.3335 15.0349 5.3335 14.6667V8.00001Z" />
  </symbol>
  <symbol id="search-icon" viewBox="0 0 16 16" xmlns="http://www.w3.org/2000/svg">
    <path fill-rule="evenodd" clip-rule="evenodd" d="M2.66683 7.33334C2.66683 4.75601 4.75617 2.66668 7.3335 2.66668C9.91083 2.66668 12.0002 4.75601 12.0002 7.33334C12.0002 8.59061 11.503 9.73176 10.6945 10.5709C10.6716 10.5884 10.6497 10.6077 10.6287 10.6286C10.6078 10.6495 10.5886 10.6715 10.571 10.6943C9.73189 11.5028 8.59075 12 7.3335 12C4.75617 12 2.66683 9.91067 2.66683 7.33334ZM11.0786 12.0213C10.0522 12.8424 8.75016 13.3333 7.3335 13.3333C4.01979 13.3333 1.3335 10.6471 1.3335 7.33334C1.3335 4.01963 4.01979 1.33334 7.3335 1.33334C10.6472 1.33334 13.3335 4.01963 13.3335 7.33334C13.3335 8.75003 12.8425 10.052 12.0214 11.0785L14.4715 13.5286C14.7319 13.789 14.7319 14.2111 14.4715 14.4714C14.2112 14.7318 13.7891 14.7318 13.5287 14.4714L11.0786 12.0213Z" />
  </symbol>
  <symbol id="heart-fill-icon" viewBox="0 0 16 16" xmlns="http://www.w3.org/2000/svg">
    <path fill-rule="evenodd" clip-rule="evenodd" d="M11.3 1.29878C10.7264 1.29878 10.1584 1.4118 9.62852 1.63137C9.09865 1.85092 8.61711 2.17283 8.21162 2.57847L8.00005 2.79005L7.78835 2.57836C6.96928 1.75929 5.85839 1.29914 4.70005 1.29914C3.54171 1.29914 2.43081 1.75929 1.61174 2.57836C0.792668 3.39743 0.33252 4.50833 0.33252 5.66667C0.33252 6.82501 0.792668 7.9359 1.61174 8.75497L7.50507 14.6483C7.77844 14.9217 8.22165 14.9217 8.49502 14.6483L14.3884 8.75497C14.794 8.34949 15.1158 7.86806 15.3353 7.33819C15.5549 6.80827 15.6679 6.24028 15.6679 5.66667C15.6679 5.09305 15.5549 4.52506 15.3353 3.99514C15.1158 3.46532 14.7941 2.98394 14.3885 2.57847C13.983 2.17277 13.5015 1.85094 12.9716 1.63137C12.4416 1.4118 11.8737 1.29878 11.3 1.29878Z" />
  </symbol>
  <symbol id="minus-icon" viewBox="0 0 16 16" xmlns="http://www.w3.org/2000/svg">
    <path fill-rule="evenodd" clip-rule="evenodd" d="M2.6665 7.99999C2.6665 7.63181 2.96498 7.33333 3.33317 7.33333H12.6665C13.0347 7.33333 13.3332 7.63181 13.3332 7.99999C13.3332 8.36818 13.0347 8.66666 12.6665 8.66666H3.33317C2.96498 8.66666 2.6665 8.36818 2.6665 7.99999Z" />
  </symbol>
  <symbol id="plus-icon" viewBox="0 0 16 16" xmlns="http://www.w3.org/2000/svg">
    <path fill-rule="evenodd" clip-rule="evenodd" d="M8.6665 3.33334C8.6665 2.96515 8.36803 2.66667 7.99984 2.66667C7.63165 2.66667 7.33317 2.96515 7.33317 3.33334V7.33334H3.33317C2.96498 7.33334 2.6665 7.63182 2.6665 8.00001C2.6665 8.3682 2.96498 8.66667 3.33317 8.66667H7.33317V12.6667C7.33317 13.0349 7.63165 13.3333 7.99984 13.3333C8.36803 13.3333 8.6665 13.0349 8.6665 12.6667V8.66667H12.6665C13.0347 8.66667 13.3332 8.3682 13.3332 8.00001C13.3332 7.63182 13.0347 7.33334 12.6665 7.33334H8.6665V3.33334Z" />
  </symbol>
  <symbol id="close-icon" viewBox="0 0 16 16" xmlns="http://www.w3.org/2000/svg">
    <path fill-rule="evenodd" clip-rule="evenodd" d="M12.4716 4.4714C12.7319 4.21105 12.7319 3.78894 12.4716 3.52859C12.2112 3.26824 11.7891 3.26824 11.5288 3.52859L8.00016 7.05719L4.47157 3.52859C4.21122 3.26824 3.78911 3.26824 3.52876 3.52859C3.26841 3.78894 3.26841 4.21105 3.52876 4.4714L7.05735 7.99999L3.52876 11.5286C3.26841 11.7889 3.26841 12.211 3.52876 12.4714C3.78911 12.7317 4.21122 12.7317 4.47157 12.4714L8.00016 8.9428L11.5288 12.4714C11.7891 12.7317 12.2112 12.7317 12.4716 12.4714C12.7319 12.211 12.7319 11.7889 12.4716 11.5286L8.94297 7.99999L12.4716 4.4714Z" />
  </symbol>
  <svg id="arrow-left-icon" viewBox="0 0 16 16" xmlns="http://www.w3.org/2000/svg">
    <path fill-rule="evenodd" clip-rule="evenodd" d="M10.4715 3.52861C10.2111 3.26826 9.78903 3.26826 9.52868 3.52861L5.52868 7.52861C5.26833 7.78896 5.26833 8.21107 5.52868 8.47141L9.52868 12.4714C9.78903 12.7318 10.2111 12.7318 10.4715 12.4714C10.7318 12.2111 10.7318 11.789 10.4715 11.5286L6.94289 8.00001L10.4715 4.47141C10.7318 4.21107 10.7318 3.78896 10.4715 3.52861Z" />
  </svg>
  <svg id="arrow-right-icon" viewBox="0 0 16 16" xmlns="http://www.w3.org/2000/svg">
    <path fill-rule="evenodd" clip-rule="evenodd" d="M5.52876 3.52861C5.78911 3.26826 6.21122 3.26826 6.47157 3.52861L10.4716 7.52861C10.7319 7.78896 10.7319 8.21107 10.4716 8.47141L6.47157 12.4714C6.21122 12.7318 5.78911 12.7318 5.52876 12.4714C5.26841 12.2111 5.26841 11.789 5.52876 11.5286L9.05735 8.00001L5.52876 4.47141C5.26841 4.21107 5.26841 3.78896 5.52876 3.52861Z" />
  </svg>
  <svg id="arrow-bottom-icon" viewBox="0 0 16 16" xmlns="http://www.w3.org/2000/svg">
    <path fill-rule="evenodd" clip-rule="evenodd" d="M12.4715 5.52864C12.7318 5.78899 12.7318 6.2111 12.4715 6.47145L8.47149 10.4714C8.21114 10.7318 7.78903 10.7318 7.52868 10.4714L3.52868 6.47144C3.26833 6.2111 3.26833 5.78899 3.52868 5.52864C3.78903 5.26829 4.21114 5.26829 4.47149 5.52864L8.00008 9.05723L11.5287 5.52864C11.789 5.26829 12.2111 5.26829 12.4715 5.52864Z" />
  </svg>
  <symbol id="arrow-top-icon" viewBox="0 0 16 16" xmlns="http://www.w3.org/2000/svg">
    <path fill-rule="evenodd" clip-rule="evenodd" d="M3.52876 10.4714C3.26841 10.211 3.26841 9.7889 3.52876 9.52855L7.52876 5.52855C7.78911 5.2682 8.21122 5.2682 8.47157 5.52855L12.4716 9.52855C12.7319 9.7889 12.7319 10.211 12.4716 10.4714C12.2112 10.7317 11.7891 10.7317 11.5288 10.4714L8.00016 6.94277L4.47157 10.4714C4.21122 10.7317 3.78911 10.7317 3.52876 10.4714Z" />
  </symbol>
</svg>
